<svg xmlns="http://www.w3.org/2000/svg" xmlns:xlink="http://www.w3.org/1999/xlink" version="1.1" x="0px" y="0px" viewBox="0 0 100 100" enable-background="new 0 0 100 100" xml:space="preserve"><path d="M88.635,12.992l-1.628-1.625c-8.483-8.486-22.294-8.485-30.78,0.001l-9.766,9.766c-1.758,1.757-1.758,4.607,0,6.364  c1.757,1.758,4.607,1.758,6.364,0l9.766-9.765c4.978-4.978,13.075-4.978,18.054,0l1.627,1.625c4.977,4.978,4.977,13.077,0,18.053  L66.646,53.038c-1.905,1.905-4.313,3.139-6.959,3.569c-4.051,0.658-8.196-0.674-11.091-3.566l-1.626-1.626  c-0.477-0.479-0.916-0.994-1.309-1.532c-1.463-2.009-4.276-2.452-6.287-0.989c-2.01,1.463-2.453,4.278-0.989,6.288  c0.664,0.911,1.408,1.782,2.216,2.592l1.63,1.633c4.106,4.104,9.684,6.369,15.414,6.369c1.16,0,2.328-0.092,3.489-0.282  c4.521-0.735,8.626-2.841,11.878-6.091l15.623-15.626C97.121,35.291,97.122,21.483,88.635,12.992z"/><path d="M47.186,72.499l-9.766,9.765c-4.979,4.978-13.075,4.978-18.052,0.002l-1.628-1.631c-2.411-2.41-3.739-5.613-3.739-9.023  c0-3.409,1.328-6.613,3.738-9.025L33.366,46.96c1.903-1.903,4.31-3.138,6.957-3.571c4.051-0.656,8.198,0.676,11.095,3.572  l1.625,1.626c0.479,0.476,0.916,0.99,1.307,1.525c1.463,2.011,4.275,2.453,6.287,0.992c2.01-1.463,2.452-4.277,0.99-6.289  c-0.664-0.91-1.408-1.782-2.218-2.592l-1.628-1.627c-4.939-4.941-12.005-7.218-18.908-6.091c-4.522,0.739-8.628,2.845-11.871,6.091  L11.374,56.221C7.264,60.333,5,65.799,5,71.613c0.001,5.813,2.265,11.279,6.374,15.386l1.628,1.63  c4.244,4.244,9.818,6.365,15.391,6.365c5.574,0,11.148-2.121,15.39-6.366l9.767-9.763c1.759-1.758,1.759-4.607,0.001-6.365  C51.792,70.743,48.944,70.742,47.186,72.499z"/></svg>