<svg xmlns="http://www.w3.org/2000/svg" xmlns:xlink="http://www.w3.org/1999/xlink" version="1.1" x="0px" y="0px" viewBox="0 0 48 60" style="enable-background:new 0 0 48 48;" xml:space="preserve"><g><path d="M20,0H2C0.895,0,0,0.895,0,2v18c0,1.105,0.895,2,2,2h18c1.105,0,2-0.895,2-2V2C22,0.895,21.105,0,20,0z"/><path d="M46,0H28c-1.105,0-2,0.895-2,2v18c0,1.105,0.895,2,2,2h18c1.105,0,2-0.895,2-2V2C48,0.895,47.105,0,46,0z"/><path d="M20,26H2c-1.105,0-2,0.895-2,2v18c0,1.105,0.895,2,2,2h18c1.105,0,2-0.895,2-2V28C22,26.895,21.105,26,20,26z"/><path d="M46,26H28c-1.105,0-2,0.895-2,2v18c0,1.105,0.895,2,2,2h18c1.105,0,2-0.895,2-2V28C48,26.895,47.105,26,46,26z"/></g><text x="0" y="63" fill="#000000" font-size="5px" font-weight="bold" font-family="'Helvetica Neue', Helvetica, Arial-Unicode, Arial, Sans-serif">Created by Momento Design</text><text x="0" y="68" fill="#000000" font-size="5px" font-weight="bold" font-family="'Helvetica Neue', Helvetica, Arial-Unicode, Arial, Sans-serif">from the Noun Project</text></svg>